<?xml version="1.0" standalone="no"?><!DOCTYPE svg PUBLIC "-//W3C//DTD SVG 1.1//EN" "http://www.w3.org/Graphics/SVG/1.1/DTD/svg11.dtd"><svg t="1525374535920" class="icon" style="" viewBox="0 0 1024 1024" version="1.1" xmlns="http://www.w3.org/2000/svg" p-id="2543" xmlns:xlink="http://www.w3.org/1999/xlink" width="200" height="200"><defs><style type="text/css"></style></defs><path d="M744.96 927.744c-6.656 0-13.312-2.048-19.456-6.144l-227.328-165.376L270.848 921.6c-11.776 8.192-27.136 8.192-38.4 0-11.776-8.192-16.384-23.04-11.776-36.864l87.04-267.264-227.84-165.376c-11.776-8.192-16.384-23.04-11.776-36.864 4.608-13.312 16.896-22.528 31.232-22.528h281.088l6.656-20.992c3.584-10.752 14.848-16.896 25.6-13.312 10.752 3.584 16.896 14.848 13.312 25.6l-8.704 26.624c-4.608 13.312-16.896 22.528-31.232 22.528H124.416l211.968 153.6c11.776 8.192 16.384 23.04 11.776 36.864l-80.896 248.832 211.968-154.112c11.776-8.192 27.136-8.192 38.4 0l211.968 153.6-80.896-247.296c-4.608-13.312 0.512-28.16 11.776-36.864l211.968-153.6h-261.632c-14.336 0-26.624-9.216-31.232-22.528L498.176 162.304l-49.152 150.528c-3.584 10.752-14.848 16.384-25.6 13.312-10.752-3.584-16.896-14.848-13.312-25.6l56.832-174.592c4.608-13.312 16.896-22.528 31.232-22.528s26.624 9.216 31.232 22.528l87.04 267.264h281.088c14.336 0 26.624 9.216 31.232 22.528 4.608 13.312-0.512 28.16-11.776 36.864l-227.328 165.376 87.04 267.264c4.608 13.312-0.512 28.16-11.776 36.864-6.656 3.584-13.312 5.632-19.968 5.632z" fill="#ffffff" p-id="2544"></path></svg>