<?xml version="1.0" standalone="no"?><!DOCTYPE svg PUBLIC "-//W3C//DTD SVG 1.1//EN" "http://www.w3.org/Graphics/SVG/1.1/DTD/svg11.dtd"><svg t="1525531455228" class="icon" style="" viewBox="0 0 1024 1024" version="1.1" xmlns="http://www.w3.org/2000/svg" p-id="6110" xmlns:xlink="http://www.w3.org/1999/xlink" width="200" height="200"><defs><style type="text/css"></style></defs><path d="M919.826 64.962l32.138 27.244-4.395 31.133-37.256 6.825-46.017 100.419-30.519-3.673-215.268 237.871c-14.847 39.758-5.926 61.609 9.759 75.011 40.698 34.799 86.902-7.806 87.799-0.022 10.452 89.78-75.177 80.816-111.928 97.558-109.296 49.791-37.169 122.438-105.349 237.134-149.11 273.074-602.617-153.189-346.957-327.549 110.569-74.657 202.877-12.507 239.699-120.574 20.471-59.997 61.949-187.191 119.416-185.579 24.578 0.687 13.763 26.131 6.216 38.585-17.174 38.818-23.766 90.482 33.035 118.355l228.93-222.38-12.332-28.958 124.244-75.769 28.785-5.631zM388.352 534.14l-18.361 20.855 101.808 89.54 18.36-20.862-101.807-89.533z m59.823-69.301l-18.36 20.855 101.807 89.541 18.36-20.862-101.807-89.534zM261.852 675.256l-41.333 41.137 105.031 98.844 39.309-39.114 95.49-28.113 3.947-1.164 2.081-3.563 5.421-9.253 9.165 4.887 24.535-46.01-36.679-19.553-24.533 46.002 9.165 4.879-2.919 4.959-100.058 29.471-88.622-83.409z" p-id="6111" fill="#ffffff"></path></svg>