<?xml version="1.0" standalone="no"?><!DOCTYPE svg PUBLIC "-//W3C//DTD SVG 1.1//EN" "http://www.w3.org/Graphics/SVG/1.1/DTD/svg11.dtd"><svg t="1524834257876" class="icon" style="" viewBox="0 0 1024 1024" version="1.1" xmlns="http://www.w3.org/2000/svg" p-id="5920" xmlns:xlink="http://www.w3.org/1999/xlink" width="32" height="32"><defs><style type="text/css"></style></defs><path d="M510.865665 958.388676c-119.42802 0-231.698013-46.5195-316.14738-130.96682-174.327374-174.315094-174.327374-457.964316 0-632.28555C279.167652 110.686938 391.438669 64.180741 510.865665 64.180741c119.425973 0 231.696989 46.506197 316.14431 130.948401 174.328397 174.327374 174.328397 457.976596 0 632.29169C742.562655 911.869177 630.291638 958.388676 510.865665 958.388676zM510.865665 144.398738c-98.002035 0-190.127222 38.163181-259.429611 107.459431-143.045927 143.045927-143.045927 375.801015 0 518.845918 69.302389 69.290109 161.427576 107.466594 259.429611 107.466594 97.999988 0 190.126198-38.176484 259.429611-107.466594 143.04388-143.044904 143.04388-375.799992 0-518.853082C700.991864 182.562942 608.865653 144.398738 510.865665 144.398738z" p-id="5921" fill="#ffffff"></path><path d="M510.865665 664.249543c-40.866756 0-79.279624-15.909341-108.159372-44.803415-59.642378-59.640332-59.642378-156.688645 0-216.33 28.879748-28.893051 67.292616-44.803415 108.159372-44.803415 40.865733 0 79.276554 15.910365 108.158349 44.803415 28.892027 28.893051 44.808532 67.304895 44.808532 108.165512s-15.916505 79.271438-44.808532 108.164488C590.14222 648.340201 551.731398 664.249543 510.865665 664.249543zM510.865665 438.531731c-19.428491 0-37.708833 7.566326-51.443649 21.301142-28.357861 28.372188-28.357861 74.526367 0 102.896508 13.734816 13.735839 32.015158 21.301142 51.443649 21.301142 19.426445 0 37.705763-7.566326 51.441603-21.301142 28.358885-28.371164 28.358885-74.524321 0-102.896508C548.571429 446.098058 530.293133 438.531731 510.865665 438.531731z" p-id="5922" fill="#ffffff"></path><path d="M629.141442 368.674711c-5.743818 0-11.514241-1.834788-16.398482-5.628184-11.659551-9.060353-13.760398-25.865087-4.700045-37.523615l76.79913-98.804307c9.072633-11.658528 25.863041-13.748119 37.522592-4.700045 11.660574 9.061376 13.761422 25.865087 4.701069 37.524638l-76.798107 98.803283C644.993478 365.121791 637.106858 368.674711 629.141442 368.674711z" p-id="5923" fill="#ffffff"></path><path d="M680.231027 419.723364c-7.962346 0-15.848966-3.544733-21.12411-10.327206-9.0624-11.658528-6.959505-28.461215 4.700045-37.523615l98.797144-76.790944c11.646248-9.067516 28.436656-6.985088 37.524638 4.700045 9.060353 11.659551 6.959505 28.462239-4.702092 37.524638l-98.797144 76.78992C691.747315 417.890622 685.976892 419.723364 680.231027 419.723364z" p-id="5924" fill="#ffffff"></path><path d="M315.764152 806.179043c-5.744841 0-11.515265-1.840928-16.398482-5.628184-11.659551-9.060353-13.761422-25.863041-4.700045-37.523615l76.783781-98.803283c9.073656-11.685133 25.864064-13.761422 37.524638-4.708232 11.658528 9.061376 13.761422 25.859971 4.699022 37.517475l-76.783781 98.816586C331.615165 802.62817 323.728544 806.179043 315.764152 806.179043z" p-id="5925" fill="#ffffff"></path><path d="M242.727719 733.11498c-7.965415 0-15.851013-3.544733-21.126156-10.328229-9.061376-11.658528-6.959505-28.462239 4.700045-37.523615l98.797144-76.797084c11.632945-9.055237 28.448936-6.978948 37.523615 4.700045 9.060353 11.659551 6.959505 28.463262-4.700045 37.523615l-98.797144 76.798107C254.242983 731.280192 248.471536 733.11498 242.727719 733.11498z" p-id="5926" fill="#ffffff"></path></svg>