<?xml version="1.0" standalone="no"?><!DOCTYPE svg PUBLIC "-//W3C//DTD SVG 1.1//EN" "http://www.w3.org/Graphics/SVG/1.1/DTD/svg11.dtd"><svg t="1524832461387" class="icon" style="" viewBox="0 0 1024 1024" version="1.1" xmlns="http://www.w3.org/2000/svg" p-id="1711" xmlns:xlink="http://www.w3.org/1999/xlink" width="32" height="32"><defs><style type="text/css"></style></defs><path d="M512.537 932.027v0.027c-231.1 0-419.133-188.034-419.133-419.133 0-231.126 188.007-419.133 419.133-419.133S931.67 281.795 931.67 512.921c0 85.581-25.462 167.47-73.741 237.49l36.098 126.291c3.798 13.307 2.017 25.803-5.03 35.128-8.828 11.71-24.781 16.268-41.573 11.475l-139.046-39.74c-60.015 31.724-127.522 48.462-195.84 48.462z m193.273-93.44l0.027-0.026c1.99 0 4.007 0.288 5.946 0.812l137.737 39.373-36.124-126.474a21.656 21.656 0 0 1 3.3-18.704c46.865-64.441 71.62-140.75 71.62-220.7 0-207.208-168.57-375.779-375.779-375.779S136.76 305.66 136.76 512.87c0 207.208 168.569 375.778 375.778 375.778 63.997 0 127.18-16.373 182.716-47.336a21.716 21.716 0 0 1 10.557-2.724z" p-id="1712" fill="#ffffff"></path><path d="M512.537 657.417c-11.971 0-21.69-9.718-21.69-21.69v-86.709c0-37.04 27.977-54.173 50.453-67.952 27.217-16.687 50.715-31.094 50.715-76.57 0-43.826-35.678-79.478-79.478-79.478s-79.478 35.652-79.478 79.479c0 11.971-9.693 21.69-21.69 21.69-11.998 0-21.69-9.693-21.69-21.69 0-67.743 55.115-122.86 122.858-122.86s122.858 55.117 122.858 122.86c0 69.758-41.257 95.064-71.409 113.532-21.611 13.229-29.759 19.358-29.759 30.99v86.708c0 11.972-9.718 21.69-21.69 21.69zM534.227 715.23c0 11.972-9.718 21.692-21.69 21.692-11.971 0-21.69-9.72-21.69-21.691 0-11.971 9.719-21.69 21.69-21.69 11.972 0 21.69 9.719 21.69 21.69z" p-id="1713" fill="#ffffff"></path></svg>