<?xml version="1.0" standalone="no"?><!DOCTYPE svg PUBLIC "-//W3C//DTD SVG 1.1//EN" "http://www.w3.org/Graphics/SVG/1.1/DTD/svg11.dtd"><svg t="1525623763417" class="icon" style="" viewBox="0 0 2035 1024" version="1.1" xmlns="http://www.w3.org/2000/svg" p-id="2535" xmlns:xlink="http://www.w3.org/1999/xlink" width="397.4609375" height="200"><defs><style type="text/css"></style></defs><path d="M2629.9377777 197.65333333c3.09333333-0.10666667 6.08-0.10666667 9.17333333-0.10666666" fill="#ffffff" p-id="2536"></path><path d="M1012.6577777 717.01333333c-82.13333333 0-159.25333333-32.74666667-217.28-92.26666666-58.02666667-59.52-90.02666667-138.66666667-90.02666667-222.82666667V34.34666667h617.38666667v364.69333333c0 84.90666667-32.21333333 164.8-90.77333333 224.85333333s-136.42666667 93.12-219.30666667 93.12zM780.0177777 110.93333333v290.98666667c0 131.52 104.32 238.50666667 232.64 238.50666667 129.81333333 0 235.41333333-108.26666667 235.41333333-241.38666667V110.93333333H780.0177777z" fill="#ffffff" p-id="2537"></path><path d="M976.66844437 955.85066667l1.06453333-280.85333334 74.66666667 0.28373334-1.0656 280.85333333z" fill="#ffffff" p-id="2538"></path><path d="M810.2321777 986.5728l0.91733333-106.66666667 408.85333334 3.5136-0.91733334 106.66666667zM929.4705777 325.44746667l133.96906667-136.8032 38.10666666 37.31733333-133.96906666 136.8032zM927.7009777 495.73866667l136.52693333-140.86293334 38.29866667 37.12-136.52693333 140.86293334zM1285.2977777 445.44v-49.28c51.52 0 86.72-26.13333333 107.84-79.68 16.32-41.6 17.06666667-83.41333333 17.06666667-85.12v-38.4h-117.33333334v-49.28H1455.64444437v87.89333333c0 2.13333333-0.53333333 52.8-20.69333334 104.10666667-12.26666667 31.25333333-29.33333333 56.42666667-50.66666666 74.77333333-26.98666667 23.14666667-60.26666667 34.98666667-98.98666667 34.98666667zM743.00444437 443.84v-51.09333333c-51.30666667 0-86.4-27.09333333-107.41333334-82.77333334-16.32-43.2-16.96-86.61333333-16.96-88.32v-39.89333333h116.69333334v-51.09333333h-162.13333334V221.86666667c0 2.24 0.53333333 54.82666667 20.58666667 108.05333333 12.26666667 32.53333333 29.22666667 58.56 50.56 77.65333333 26.88 24 60.05333333 36.26666667 98.66666667 36.26666667z" fill="#ffffff" p-id="2539"></path></svg>