<?xml version="1.0" standalone="no"?><!DOCTYPE svg PUBLIC "-//W3C//DTD SVG 1.1//EN" "http://www.w3.org/Graphics/SVG/1.1/DTD/svg11.dtd"><svg t="1524832093814" class="icon" style="" viewBox="0 0 1024 1024" version="1.1" xmlns="http://www.w3.org/2000/svg" p-id="6840" xmlns:xlink="http://www.w3.org/1999/xlink" width="32" height="32"><defs><style type="text/css"></style></defs><path d="M675.84 198.0416a348.16 348.16 0 1 0 0 491.52 348.16 348.16 0 0 0 0-491.52z m-28.8768 463.2576a307.2 307.2 0 1 1 0-434.3808 307.2 307.2 0 0 1 0 434.3808z" p-id="6841" fill="#ffffff"></path><path d="M675.84 661.2992a20.48 20.48 0 0 1 28.8768 0l231.8336 231.8336A20.48 20.48 0 1 1 907.4688 921.6L675.84 690.3808a20.48 20.48 0 0 1 0-29.0816zM574.464 299.4176zM574.464 589.0048v-0.2048 0.2048zM266.24 435.6096h-40.96a206.6432 206.6432 0 0 0 5.9392 59.392l39.5264-10.6496a165.2736 165.2736 0 0 1-4.5056-48.7424zM284.8768 299.4176a202.3424 202.3424 0 0 0-53.6576 95.4368h42.5984a162.2016 162.2016 0 0 1 193.3312-109.568l10.6496-39.5264a204.8 204.8 0 0 0-192.9216 53.6576z" p-id="6842" fill="#ffffff"></path></svg>