<?xml version="1.0" standalone="no"?><!DOCTYPE svg PUBLIC "-//W3C//DTD SVG 1.1//EN" "http://www.w3.org/Graphics/SVG/1.1/DTD/svg11.dtd"><svg t="1524834554002" class="icon" style="" viewBox="0 0 1024 1024" version="1.1" xmlns="http://www.w3.org/2000/svg" p-id="6801" xmlns:xlink="http://www.w3.org/1999/xlink" width="32" height="32"><defs><style type="text/css"></style></defs><path d="M679.44448 148.2752a204.8 204.8 0 1 0 34.07872 81.22368 20.48 20.48 0 0 0-40.30464 7.3728 163.84 163.84 0 1 1-27.2384-64.9216 20.48 20.48 0 0 0 33.46432-23.63392zM880.64 880.64a368.64 368.64 0 0 0-617.75872-271.72864 20.48 20.48 0 1 0 27.68896 30.18752A326.0416 326.0416 0 0 1 512 552.96a327.68 327.68 0 0 1 327.68 327.68 20.48 20.48 0 1 0 40.96 0zM229.376 643.8912a367.16544 367.16544 0 0 0-86.016 236.7488 20.48 20.48 0 1 0 40.96 0c0-78.06976 27.36128-151.83872 76.47232-210.41152a20.48 20.48 0 0 0-31.37536-26.33728z" p-id="6802" fill="#ffffff"></path><path d="M491.52 675.84v81.92c0 11.264 9.216 20.48 20.48 20.48 11.4688 0 20.48-9.05216 20.48-20.48v-81.92c0-11.264-9.216-20.48-20.48-20.48-11.4688 0-20.48 9.05216-20.48 20.48z m-40.96 0c0-33.91488 27.27936-61.44 61.44-61.44 33.91488 0 61.44 27.60704 61.44 61.44v81.92c0 33.91488-27.27936 61.44-61.44 61.44-33.91488 0-61.44-27.60704-61.44-61.44v-81.92z" p-id="6803" fill="#ffffff"></path><path d="M491.52 798.72v81.92a20.48 20.48 0 1 0 40.96 0v-81.92a20.48 20.48 0 1 0-40.96 0z" p-id="6804" fill="#ffffff"></path></svg>