<?xml version="1.0" standalone="no"?><!DOCTYPE svg PUBLIC "-//W3C//DTD SVG 1.1//EN" "http://www.w3.org/Graphics/SVG/1.1/DTD/svg11.dtd"><svg t="1525531513802" class="icon" style="" viewBox="0 0 1024 1024" version="1.1" xmlns="http://www.w3.org/2000/svg" p-id="8556" xmlns:xlink="http://www.w3.org/1999/xlink" width="200" height="200"><defs><style type="text/css"></style></defs><path d="M890.55 131.78C801.3 42.1 595.82 103.16 431.6 268.17c-92.67 93.12-152.4 199.43-170.82 290.51L464.43 764.8c90.92-18.2 197.27-78.35 290.37-171.87 164.2-165.01 225-371.47 135.75-461.15zM637.47 475c-48.9 0-88.53-39.83-88.53-89s39.63-89 88.53-89S726 336.82 726 386s-39.65 89-88.53 89z" fill="#ffffff" p-id="8557"></path><path d="M464.43 777.3a12.5 12.5 0 0 1-8.89-3.71L251.9 567.47a12.5 12.5 0 0 1-3.36-11.26c19.64-97.15 83.14-205.35 174.21-296.85C534.1 147.46 670.07 77.94 777.57 77.94c50.39 0 92.52 15.57 121.83 45 23.82 23.93 38.31 55.55 43.08 94 4.48 36.09 0.18 76.71-12.77 120.71-26.22 89.06-85.19 182.85-166.06 264.11-91.57 92-199.73 155.89-296.77 175.31a12.47 12.47 0 0 1-2.45 0.23z m-190-222.61l194.1 196.47c90.62-20 191.33-80.58 277.41-167.05 78-78.36 134.73-168.4 159.8-253.53 12-40.7 16-77.9 11.94-110.57s-16.18-59.5-36-79.4c-24.87-25-59.9-37.66-104.11-37.66-101.09 0-230.26 66.69-337.11 174-85.66 86.12-145.87 186.93-166.05 277.74z m363.06-67.17c-55.71 0-101-45.51-101-101.45s45.32-101.45 101-101.45 101 45.51 101 101.45-45.31 101.46-101.02 101.46z m0-177.9c-41.92 0-76 34.3-76 76.45s34.11 76.45 76 76.45 76-34.3 76-76.45-34.1-76.45-76.02-76.45z" fill="#ffffff" p-id="8558"></path><path d="M640.62 122.42l260.11 261.35" fill="#ffffff" p-id="8559"></path><path d="M631.79 131.272l17.721-17.634 260.087 261.36-17.721 17.635z" fill="#ffffff" p-id="8560"></path><path d="M257.2 335.35c-48.68 23.05-168.62 88.76-147.54 168A8.44 8.44 0 0 0 121 509l91.15-36.64a8.45 8.45 0 0 0 4.62-4.53l51.83-121.51a8.45 8.45 0 0 0-11.4-10.97z" fill="#ffffff" p-id="8561"></path><path d="M117.81 522.1a20.92 20.92 0 0 1-20.23-15.51c-5.71-21.48-2.93-43.47 8.27-65.36 9-17.54 23.51-35.15 43.2-52.36 35.06-30.64 79.46-53.76 102.8-64.82a21 21 0 0 1 28.23 27.17l-51.83 121.51A20.82 20.82 0 0 1 216.79 484l-91.15 36.64a21 21 0 0 1-7.83 1.46z m135-170.73C229.46 363 194 382.81 165.49 407.7c-34.9 30.49-49.94 60-44.78 87.92l85.2-34.24z" fill="#ffffff" p-id="8562"></path><path d="M688 768.1c-22.94 48.9-88.36 169.52-167.3 148.3a8.44 8.44 0 0 1-5.6-11.28l36.5-91.69a8.45 8.45 0 0 1 4.51-4.64l120.86-52A8.45 8.45 0 0 1 688 768.1z" fill="#ffffff" p-id="8563"></path><path d="M539.28 931.39a83.77 83.77 0 0 1-21.82-2.91 20.94 20.94 0 0 1-14-28L540 808.81a20.82 20.82 0 0 1 11.18-11.5l120.86-52a21 21 0 0 1 27.27 28.13c-11 23.45-34 68.06-64.49 103.31-17.13 19.8-34.68 34.42-52.14 43.45-14.5 7.43-29.02 11.19-43.4 11.19z m-10.82-26a57.88 57.88 0 0 0 10.62 1c59.73 0 112-91.69 132.88-133.82l-109.37 47.1z" fill="#ffffff" p-id="8564"></path><path d="M194.83 652.93l-88.53 88.95" fill="#ffffff" p-id="8565"></path><path d="M102.772 738.333l88.525-88.958 7.088 7.054-88.525 88.958z" fill="#ffffff" p-id="8566"></path><path d="M283.36 741.88l-132.8 133.43" fill="#ffffff" p-id="8567"></path><path d="M147.04 871.76l132.786-133.437 7.089 7.054-132.788 133.438z" fill="#ffffff" p-id="8568"></path><path d="M371.88 830.83l-88.52 88.95" fill="#ffffff" p-id="8569"></path><path d="M279.827 916.238l88.525-88.958 7.088 7.053-88.525 88.959z" fill="#ffffff" p-id="8570"></path><path d="M94.095867 753.866476a20.16 79.85 45 1 0 112.924953-112.924952 20.16 79.85 45 1 0-112.924953 112.924952Z" fill="#ffffff" p-id="8571"></path><path d="M99.08 768.1a18.74 18.74 0 0 1-13.81-5.39c-21.43-21.43 26.89-73.08 42.21-88.4s67-63.64 88.4-42.21c21.43 21.43-26.89 73.08-42.21 88.4-12.67 12.61-49.87 47.6-74.59 47.6z m94.52-113.73c-10.18 4.93-27.66 16.82-48.45 37.61s-32.68 38.27-37.61 48.45c10.18-4.93 27.66-16.82 48.45-37.61s32.67-38.27 37.6-48.45z" fill="#ffffff" p-id="8572"></path><path d="M272.008595 931.767062a20.16 79.85 45 1 0 112.924953-112.924953 20.16 79.85 45 1 0-112.924953 112.924953Z" fill="#ffffff" p-id="8573"></path><path d="M277.12 946.08a19 19 0 0 1-14-5.47c-12.79-12.79 0.27-34.67 4.56-41.86 8.48-14.22 21.85-30.74 37.64-46.54 15.32-15.32 67-63.64 88.4-42.21 21.43 21.43-26.89 73.08-42.21 88.4-15.74 15.79-32.26 29.16-46.51 37.6-4.91 3-16.79 10.08-27.88 10.08z m94.38-113.8c-10.18 4.93-27.66 16.82-48.45 37.61s-32.68 38.27-37.61 48.45c10.18-4.93 27.66-16.82 48.45-37.61s32.67-38.27 37.61-48.45z" fill="#ffffff" p-id="8574"></path><path d="M132.284842 893.264016a20.16 119.74 45 1 0 169.337932-169.337932 20.16 119.74 45 1 0-169.337932 169.337932Z" fill="#ffffff" p-id="8575"></path><path d="M135.66 907a16.56 16.56 0 0 1-12.21-4.93c-11.76-11.76-0.52-31.45 13.37-51 13.69-19.23 33.95-42.54 57-65.64s46.4-43.35 65.64-57c19.52-13.9 39.21-25.13 51-13.37 11.76 11.76 0.52 31.44-13.37 51-13.69 19.23-33.95 42.54-57 65.64s-46.4 43.35-65.64 57c-13.82 9.84-27.69 18.3-38.79 18.3z m146.83-164c-15.38 9.87-40.18 29.34-71 60.12s-50.24 55.57-60.12 71c15.38-9.87 40.18-29.34 71-60.12s50.25-55.56 60.12-70.94z" fill="#ffffff" p-id="8576"></path></svg>