<?xml version="1.0" standalone="no"?><!DOCTYPE svg PUBLIC "-//W3C//DTD SVG 1.1//EN" "http://www.w3.org/Graphics/SVG/1.1/DTD/svg11.dtd"><svg t="1524834611682" class="icon" style="" viewBox="0 0 1024 1024" version="1.1" xmlns="http://www.w3.org/2000/svg" p-id="5508" xmlns:xlink="http://www.w3.org/1999/xlink" width="32" height="32"><defs><style type="text/css"></style></defs><path d="M285.184 105.984v670.72c-30.208-24.576-71.168-39.936-116.224-39.936-92.16 0-167.424 63.488-167.424 141.824S76.8 1020.416 168.96 1020.416s167.424-63.488 167.424-141.824V345.088L972.8 257.536v315.392c-30.208-24.576-71.168-39.936-116.224-39.936-92.16 0-167.424 63.488-167.424 141.824s75.264 141.824 167.424 141.824S1024 752.64 1024 674.816V4.608L285.184 105.984zM168.96 969.216c-64 0-116.224-40.448-116.224-90.624 0-49.664 52.224-90.624 116.224-90.624s116.224 40.448 116.224 90.624c0 50.176-52.224 90.624-116.224 90.624z m687.616-203.776c-64 0-116.224-40.448-116.224-90.624 0-49.664 52.224-90.624 116.224-90.624S972.8 624.64 972.8 674.816c0 49.664-52.224 90.624-116.224 90.624zM336.384 293.376V151.04L972.8 63.488v142.336L336.384 293.376z" p-id="5509" fill="#ffffff"></path></svg>