<?xml version="1.0" standalone="no"?><!DOCTYPE svg PUBLIC "-//W3C//DTD SVG 1.1//EN" "http://www.w3.org/Graphics/SVG/1.1/DTD/svg11.dtd"><svg t="1524927320738" class="icon" style="" viewBox="0 0 1024 1024" version="1.1" xmlns="http://www.w3.org/2000/svg" p-id="2617" xmlns:xlink="http://www.w3.org/1999/xlink" width="32" height="32"><defs><style type="text/css"></style></defs><path d="M522.24 760.32c-15.36 0-25.6-10.24-25.6-25.6V448c0-15.36 10.24-25.6 25.6-25.6s25.6 10.24 25.6 25.6v289.28c0 12.8-12.8 23.04-25.6 23.04z" fill="#ffffff" p-id="2618"></path><path d="M601.6 545.28c-7.68 0-12.8-2.56-17.92-7.68l-61.44-61.44L460.8 537.6c-10.24 10.24-25.6 10.24-35.84 0s-10.24-25.6 0-35.84l79.36-79.36c10.24-10.24 25.6-10.24 35.84 0l79.36 79.36c10.24 10.24 10.24 25.6 0 35.84-5.12 5.12-10.24 7.68-17.92 7.68z" fill="#ffffff" p-id="2619"></path><path d="M755.2 780.8h-151.04c-15.36 0-25.6-10.24-25.6-25.6s10.24-25.6 25.6-25.6h151.04c79.36 0 143.36-64 143.36-143.36s-64-143.36-143.36-143.36c-23.04 0-48.64 5.12-69.12 17.92-7.68 5.12-17.92 5.12-25.6 0-7.68-5.12-12.8-12.8-12.8-23.04 0-71.68-56.32-128-128-128-58.88 0-110.08 40.96-125.44 97.28-2.56 7.68-5.12 12.8-12.8 15.36-5.12 2.56-12.8 5.12-20.48 2.56-10.24-2.56-20.48-5.12-28.16-5.12-61.44 0-110.08 48.64-110.08 110.08 0 10.24-7.68 20.48-17.92 23.04-35.84 12.8-58.88 46.08-58.88 81.92 0 48.64 38.4 87.04 87.04 87.04h168.96c15.36 0 25.6 10.24 25.6 25.6s-10.24 25.6-25.6 25.6H243.2h-2.56c-79.36 5.12-145.92-58.88-145.92-138.24 0-53.76 30.72-102.4 76.8-125.44 7.68-81.92 76.8-145.92 161.28-145.92h17.92c25.6-69.12 92.16-115.2 166.4-115.2 87.04 0 158.72 61.44 176.64 143.36 17.92-5.12 38.4-10.24 58.88-10.24 107.52 0 194.56 87.04 194.56 194.56 0 117.76-87.04 204.8-192 204.8z" fill="#ffffff" p-id="2620"></path></svg>