<?xml version="1.0" standalone="no"?><!DOCTYPE svg PUBLIC "-//W3C//DTD SVG 1.1//EN" "http://www.w3.org/Graphics/SVG/1.1/DTD/svg11.dtd"><svg t="1525668656928" class="icon" style="" viewBox="0 0 1024 1024" version="1.1" xmlns="http://www.w3.org/2000/svg" p-id="2467" xmlns:xlink="http://www.w3.org/1999/xlink" width="200" height="200"><defs><style type="text/css"></style></defs><path d="M998.4 556.8c0-6.4 0-12.8-6.4-25.6L870.4 320c-12.8-19.2-32-25.6-51.2-12.8-19.2 12.8-25.6 32-12.8 51.2l96 166.4h-160c-19.2 0-32 12.8-38.4 32-6.4 44.8-32 89.6-64 115.2-32 25.6-76.8 44.8-128 44.8-44.8 0-89.6-19.2-128-44.8-32-32-57.6-70.4-64-115.2 0-19.2-19.2-32-38.4-32H121.6l96-166.4c12.8-19.2 6.4-38.4-12.8-51.2-19.2-12.8-38.4-6.4-51.2 12.8L32 531.2c-6.4 6.4-6.4 19.2-6.4 25.6V902.4c0 19.2 19.2 38.4 38.4 38.4h896c19.2 0 38.4-19.2 38.4-38.4V556.8z m-76.8 307.2H102.4V595.2H256c12.8 51.2 44.8 96 83.2 128C384 768 448 793.6 512 793.6c64 0 128-25.6 172.8-64 38.4-32 70.4-76.8 83.2-128h153.6v262.4zM300.8 371.2h108.8v230.4c0 12.8 12.8 19.2 19.2 19.2h153.6c12.8 0 25.6-12.8 25.6-19.2V371.2h108.8c12.8 0 25.6-12.8 25.6-25.6 0-6.4 0-12.8-6.4-12.8L524.8 128c-6.4-12.8-19.2-12.8-32 0L288 332.8c-6.4 6.4-6.4 25.6 0 32 0 6.4 6.4 6.4 12.8 6.4zM512 172.8l160 153.6H588.8c-12.8 0-19.2 12.8-19.2 25.6V576H454.4V352c0-12.8-12.8-19.2-25.6-19.2H358.4L512 172.8z" fill="#e6e6e6" p-id="2468"></path></svg>